<svg id="图层_1" data-name="图层 1" xmlns="http://www.w3.org/2000/svg" viewBox="0 0 1080 1080"><defs><style>.cls-1{fill:#fff;}.cls-2{fill:#2aad9d;}.cls-3{fill:#e8853d;}</style></defs><ellipse class="cls-1" cx="338.64" cy="821.84" rx="153.44" ry="119.05"/><ellipse class="cls-1" cx="765.9" cy="833.74" rx="152.12" ry="123.02"/><ellipse class="cls-2" cx="334.67" cy="820.52" rx="130.96" ry="91.27"/><ellipse class="cls-2" cx="769.87" cy="831.1" rx="126.99" ry="96.56"/><path class="cls-2" d="M478.86,798S428.59,824.49,418,811.26l-18.52,18.52c-2.56,4.88-26.36-30.3-31.75-29.1-21.12,4.67-66.27,48.06-97.88,29.1,0,0-18.52,21.16-45,21.16s-21.16-45-21.16-45l-10.58-29.1-31.75-39.69-15.87-23.81H121.71L90,724l-42.33-2.64L45,697.5,58.21,679,90,668.4l13.23-7.94H74.09l-26.46-2.64L29.11,641.94s2.65-18.52,2.65-21.16S45,612.84,45,612.84l34.4-2.64L39.69,599.61V573.16l18.52-18.52,55.56,2.64,21.16-68.78,10.59-50.27-10.59-68.78v-87.3l23.81-76.72,23.81-60.85,39.69-26.46,45,2.65,100.53,31.74,52.91,39.69,63.5-5.29,74.07-2.65h82l37,7.94,58.2-23.81,31.75-23.81,58.2-18.52,45-10.58,34.39,7.93,37,47.62s15.87,39.69,15.87,42.33,18.52,52.91,18.52,52.91l5.29,84.66-2.64,82-7.94,55.56,13.23,50.27,5.29,18.51,31.75-2.64,34.39,10.58-2.65,29.1-5.29,15.88,10.58,18.51-5.29,18.52-21.16,13.23,10.58,37-7.94,21.16-46.29-4L967,706.76,943.15,738.5,911.4,780.83,895.53,802l5.29,29.1-10.58,39.68-5.78,14.44c-4.21,10.54,14.16-31.05,4.46-36.92-4.29-2.6-30.9-8.22-31.75-15.88L746.06,792.74C732.28,767.62,478.86,798,478.86,798Z"/><path class="cls-1" d="M460.79,847.36c12.13-54.45-26.61-98.82-76.93-112.21C330.93,721.07,282.72,729.7,243,770.36c-.57.59-1.3,1-3.75,2.95-11.44-11.79-23.13-23.61-34.32-35.87-.85-.93-20.81-33-26.95-45.87-6-12.59-29.81-65.5-18.81-162.5,3.29-29,13-56.75,25.22-83.39.33-.72,21.14-40.18,22.81-42.94a363.55,363.55,0,0,1,81.66-93.06c49.06-40,104.69-66.58,166.27-80.88,89.87-18.08,145.43-10.15,176.66-3.47a488.77,488.77,0,0,1,75.6,22.36c76.19,29.82,137.65,78.71,183.27,147,10.32,15.46,39.65,82.43,45,99.7a184.18,184.18,0,0,1,7.09,31.13c22.92,182.55-69.79,237.51-81.64,249-18.77-9.41-34.41-20-51.67-25.35-46.34-14.33-90.61-8.54-129.73,21.68-22.35,17.27-35.29,40.22-35.12,69.36,0,1.93-.3,3.85-.54,6.81C583,853.33,522.25,853.13,460.79,847.36Zm76.5-168.92c-6.56-1.39-11.38-3-16.28-3.31-11.07-.63-22.47-2.24-33.23-.42-15.37,2.6-26.34,12.45-30.24,28.09-3.67,14.69,2.36,26.52,13.63,35.53a81.25,81.25,0,0,0,19.28,11.74c46.55,19.21,91.61,17,133.21-12.71,20.82-14.88,20.06-46.13,0-61.91-11.76-9.25-25.26-9.86-39.2-7-8.35,1.69-16.61,3.8-26,6,0-5.09.26-9-.06-12.82-.59-7.06.78-11.72,8.85-14.29,10.52-3.36,17.72-11.5,22.35-21.6,7-15.24.13-26.42-16.56-27-7.28-.27-14.57-.73-21.85-.61-12.29.21-24.67,0-36.84,1.47-10.15,1.2-13.71,7.69-10.94,17.64,4.19,15.05,15.06,24.37,28.16,31.73,2.33,1.31,5.28,3.89,5.5,6.13C537.73,662.17,537.29,669.44,537.29,678.44Z"/><path class="cls-1" d="M133.13,581.81c-16-3.11-30.15-6.15-44.46-8.55-9.11-1.52-18.36-2.2-27.58-3s-14.9,3.12-15.26,10.32S50,590.62,59.37,592c20.76,3,41.4,6.76,62.12,10,8.47,1.34,14.1,4.67,12.64,14.55-.27,1.85.38,3.83.73,6.87-7.37-.62-14.23-1.76-21.07-1.67q-31.07.38-62.11,1.62c-7.55.3-11.91,5.36-11.38,11.7.54,6.56,5.13,9.69,13.25,9.56,22.38-.35,44.78-1.28,67.13-.56,18.93.61,19.42,2,22.53,23.69-10.14,2.52-20.62,4.26-30.47,7.76-15,5.32-29.71,11.59-44.29,18-8.27,3.63-10.66,9.76-7.52,16,3,6,9.26,7.45,17.48,3.25,20.84-10.67,42.4-19,65.7-22.56,4.95-.76,7.45-.09,9.52,4.9,15.38,37,39.25,67.65,70.23,93,2,1.61,3.68,5.93,2.93,8.09-13.31,38.32-2.53,69.81,26.6,96.28a26.34,26.34,0,0,0,4.29,2.66c-.36.76-.73,1.51-1.09,2.26-11.85,0-23.71.33-35.52-.27-2.35-.12-5-3.42-6.68-5.85-16.65-24.59-24.64-51.42-19.45-81.18,1.07-6.15.37-10.65-4.6-14.72-8.19-6.72-16.38-13.52-23.92-20.94a77.06,77.06,0,0,1-12.06-15.73c-7.33-12.38-14-25.13-21.69-39-16.27,7.19-30.59,13.38-44.78,19.84-23.77,10.82-49.38-1-55.23-26.4-3.57-15.43,1.57-28.68,12.79-38.33-7.19-4.36-15.06-7.83-21.3-13.19C7.76,647.52,8.76,621.08,22.21,608c1.39-1.34,1.54-5.63.47-7.58-14.58-26.74,3.1-58,33.76-58,16.4,0,32.79,2.56,49.23,4,2.89-15.69,5.66-31.92,9-48,1.9-9.31,3.89-18.74,7.24-27.59,4.22-11.17,4.42-22.17,2.75-33.73-6.93-48-7.8-96-1.59-144.14,6.93-53.68,22.49-104.48,51.43-150.64,22.58-36,56.42-48.69,100.35-38.1,39.12,9.44,74.43,27.66,109,47.54,15.28,8.8,30.11,18.4,44.92,28,3.94,2.55,6.57,1.76,10.57.08a94.08,94.08,0,0,1,21.42-6.07c12.57-2,25.26-3.58,38-4.48,13.11-.93,26.33-1.64,39.43-1,31.3,1.48,62.61,3.16,93.8,6.09,13.54,1.27,26.71,6.18,40.19,8.65,4.14.75,9.62.2,13-2,37-23.9,74.45-47.11,115.67-62.86,20.49-7.83,42.12-14.54,63.77-17,30.17-3.46,55.57,9.37,73,34.6,32.36,46.95,48.41,100.07,55.72,156,8.08,61.72,4.26,123.06-7.28,184.09-.94,5-.09,10.54.81,15.68,2.87,16.24,6.16,32.42,9.52,49.81,8.69-.65,18.24-.45,27.41-2.23,32.15-6.22,60.84,28.93,39.55,62,26.12,28.15,9,63.47-22,68.56,9.23,8.91,15.23,18.77,15.11,31.67-.25,28.41-28.54,46.91-54.52,35.27-7.92-3.54-15.67-7.47-23.47-11.26-5.07-2.46-9.31-3-12.58,3.06-5.43,10-10.91,20-17.15,29.53A123,123,0,0,1,933,777c-7.44,7.46-16,13.8-23.45,21.28-1.58,1.59-1,6.25-.21,9.13,7.95,27.59,5.71,54.19-6.5,80.2-3.36,7.18-7.43,11.05-15.9,10.13-7.18-.78-14.51-.16-23.7-.16C890,864.18,894,829.69,873,794.29c13.12-13,26.35-25.08,38.35-38.28a199.34,199.34,0,0,0,37.41-60.47c2.47-6.18,5.79-7.73,11.36-5.65,15.72,5.88,31.37,11.93,47,17.94,1,.4,2,1.1,3,1.59,8.06,4,14.16,2.72,17.31-3.59,3-6,.84-12.08-7.09-15.39-18-7.54-36.4-14.32-54.64-21.37-1.79-.69-3.69-1.1-6.37-1.88,1.82-8.05,3.26-16,5.62-23.62.53-1.7,4.31-3.39,6.6-3.4,18.75-.06,37.51.26,56.26.53,3.08,0,6.16.56,9.24.55,6.24,0,10.13-3.1,10.61-9.49.51-6.63-2.65-11.24-9.34-11.58-20.4-1-40.82-1.52-61.23-2.2-2.49-.09-5,0-8.81,0,.49-6.22.67-12.26,1.68-18.15.23-1.35,3.23-2.88,5.14-3.19,17.39-2.87,34.83-5.5,52.26-8.15,1.93-.29,4,0,5.87-.37,6.58-1.21,9.81-5.34,9-11.93s-5.33-10-11.71-9.36c-16.71,1.78-33.36,4.07-50,6.24-3.28.43-6.51,1.22-10.21,1.93-1.17-12.34-2.07-24-3.43-35.64-1.08-9.18-1.33-18.8-4.42-27.33-7.62-21.1-3.6-41.57-.31-62.67C974.27,371.69,974,294.49,947.8,219.29a347.89,347.89,0,0,0-26-56.28c-18.3-32.37-39.27-40.52-75.4-31.38-36.51,9.23-69.55,26.47-101.72,45.39-18.83,11.07-36.9,23.42-55.58,34.74-3.08,1.86-8,2.75-11.36,1.79-80.6-22.7-161.38-24.11-242.37-2.48-5.5,1.46-9.39.22-13.89-2.82-38.18-25.71-77.31-49.9-120.47-66.39a239.92,239.92,0,0,0-50.15-13.07c-19.72-2.91-36.46,5.23-48.06,21.66-25.18,35.65-39.19,75.93-47.59,118.37C143.33,329,145,389.22,154.14,449.54A34.19,34.19,0,0,1,152.68,465c-11.53,34.5-18.55,69.78-19.54,106.19C133.05,574.45,133.13,577.76,133.13,581.81Z"/><path class="cls-3" d="M708.82,223.84c26.28-15.23,49.87-30.33,74.74-42.87a444.47,444.47,0,0,1,66.61-27.37c28.35-8.89,40.45-2.32,55,23.59,19.47,34.59,31.23,71.72,37.37,110.78,7.64,48.56,6.48,97.13-.1,145.68-.26,1.89-.94,3.73-1.79,7C893.8,336.26,815.93,266.26,708.82,223.84Z"/><path class="cls-3" d="M399.86,221.74c-99.42,36.63-176,99.87-226.86,195.59-.87-3.43-1.54-5.08-1.69-6.79-5.91-65.72-2.74-130.57,21.26-192.87,6.6-17.13,15.78-33.33,24.58-49.52,7.81-14.35,20.46-19.9,36.76-17.4,25,3.83,47.92,13.72,70,25.27,26,13.6,51.17,28.71,76.71,43.17C400.34,220,400.1,220.89,399.86,221.74Z"/><path class="cls-1" d="M367.74,837.71c7,21.46,9.44,36.22-1.6,55.2-1.1,1.9-3.45,4.3-5.28,4.35-11.39.33-22.78.24-34.37.21a3.62,3.62,0,0,1-3.48-4.68c6.56-20.53,7.21-39.26,2.6-53.83-2.31-7.33-13.37-5.06-12.67,2.6a60.35,60.35,0,0,1-.11,13.77c-1.55,11.44-7.59,22.27-12.39,33.12a5.55,5.55,0,0,1-6.9,3c-34.4-12-56.14-46.43-48.92-78,5.24-22.89,20.49-38.76,40.79-48.65,43.75-21.31,86.92-19.77,127.11,8.92,28.11,20.06,36.21,51.9,21.7,80-8,15.38-20,26.62-36.26,34.63a3,3,0,0,1-4.39-2.42,225.12,225.12,0,0,0-11.75-55.78C379.11,822.35,362.69,822.25,367.74,837.71Z"/><path class="cls-1" d="M791,848.3c7,21.45,9.44,36.22-1.6,55.19-1.1,1.9-3.45,4.3-5.28,4.35-11.39.33-22.78.24-34.38.21a3.61,3.61,0,0,1-3.47-4.67c6.56-20.54,7.21-39.26,2.6-53.84-2.31-7.33-13.37-5.06-12.67,2.6a60.35,60.35,0,0,1-.11,13.77c-1.55,11.44-7.59,22.28-12.39,33.12a5.55,5.55,0,0,1-6.9,3c-34.4-12-56.14-46.43-48.92-78,5.24-22.89,20.49-38.75,40.79-48.64,43.75-21.31,86.92-19.78,127.11,8.91,28.11,20.06,36.21,51.9,21.7,80-8,15.37-20,26.61-36.26,34.62a3,3,0,0,1-4.39-2.41,225.1,225.1,0,0,0-11.75-55.79C802.4,832.93,786,832.83,791,848.3Z"/><path class="cls-3" d="M537.29,678.44c0-9,.44-16.27-.26-23.43-.22-2.24-3.17-4.82-5.5-6.13-13.1-7.36-24-16.68-28.16-31.73-2.77-9.95.79-16.44,10.94-17.64,12.17-1.43,24.55-1.26,36.84-1.47,7.28-.12,14.57.34,21.85.61,16.69.62,23.55,11.8,16.56,27-4.63,10.1-11.83,18.24-22.35,21.6-8.07,2.57-9.44,7.23-8.85,14.29.32,3.84.06,7.73.06,12.82,9.43-2.19,17.69-4.3,26-6,13.94-2.82,27.44-2.21,39.2,7,20.06,15.78,20.82,47,0,61.91-41.6,29.74-86.66,31.92-133.21,12.71a81.25,81.25,0,0,1-19.28-11.74c-11.27-9-17.3-20.84-13.63-35.53,3.9-15.64,14.87-25.49,30.24-28.09,10.76-1.82,22.16-.21,33.23.42C525.91,675.4,530.73,677.05,537.29,678.44Zm-54.13,43.82c-5.17,1.83-6.23,8.89-1.67,12l.08.06c38.66,25.8,98.86,24.13,135.54-4.1h0l-5.21-19.61C568.61,702.76,526.08,707,483.16,722.26Z"/><path class="cls-1" d="M482.93,722.34c43.83-15.58,87.25-19.76,131.5-11.31,7.53,1.43,10.83,10.58,5.7,16.28a24.15,24.15,0,0,1-3.18,3c-36.69,28.12-96.78,29.74-135.38,4l-.08-.06A6.7,6.7,0,0,1,482.93,722.34Z"/><path class="cls-3" d="M759,526c-.12,37.29-30.55,67-68.94,67.34-36.91.31-67.28-30.85-67.17-68.93.11-38.29,29.77-67.81,68.1-67.76C729.89,456.72,759.11,486.51,759,526Z"/><path class="cls-3" d="M382.41,469.64c14.49-18.16,63.44-19.59,88.39,7.3,25.17,27.12,25.27,69.29.1,94.44l-15.85-2.58V584a67.65,67.65,0,0,1-84.46-13.43c-19.66-21.92-22.82-57-8.92-75.76,8,3.49,15.12,8.56,22.47,8.93,3.67.18,11.54-8.89,10.88-12.6C393.77,484.21,387.72,478.1,382.41,469.64Z"/><path class="cls-3" d="M483.41,583.34c-12,31-65.76,59-111,49.06C321,621.08,284.53,576,285.65,523c1.12-52.54,38.28-96.11,89.79-105.28,44.41-7.89,96.93,17.45,110.49,53.33-51.38-47.14-103.94-52.9-142.68-15.61-38.57,37.12-41.58,92.9-7.14,132.34C373.54,630.65,425.19,629.1,483.41,583.34Z"/><path class="cls-3" d="M613.53,578.47c57.74,50.15,108.25,54.12,148.8,11.67,33.73-35.31,34.08-93,.77-128.31-40.52-42.95-91-40.69-147,6.61,12.81-33.7,66-58.54,108.9-50.89,52.11,9.28,89.4,53.71,89.62,106.78.22,52.85-35.87,97.73-86.6,107.73C681.34,641.25,628.68,616.59,613.53,578.47Z"/><circle class="cls-1" cx="383.62" cy="493.79" r="23.81"/><circle class="cls-1" cx="727.54" cy="493.79" r="23.81"/><circle class="cls-1" cx="459.01" cy="571.83" r="11.91"/><circle class="cls-1" cx="654.79" cy="571.83" r="11.91"/><ellipse class="cls-2" cx="504.76" cy="262.71" rx="11.66" ry="51.32"/><ellipse class="cls-2" cx="553.76" cy="274.37" rx="18.66" ry="72.32"/><ellipse class="cls-2" cx="607.41" cy="258.04" rx="16.33" ry="51.32"/><ellipse class="cls-2" cx="889.77" cy="484.71" rx="50.45" ry="16.03" transform="matrix(0.85, -0.53, 0.53, 0.85, -121.33, 550.26)"/><ellipse class="cls-2" cx="220.17" cy="451.21" rx="15.2" ry="61.65" transform="translate(-276.8 379.86) rotate(-55.82)"/><ellipse class="cls-2" cx="197.24" cy="557.32" rx="15.32" ry="58.61" transform="translate(-383.51 667.96) rotate(-81.3)"/><ellipse class="cls-2" cx="914.73" cy="561.77" rx="51.12" ry="14.71" transform="translate(-109.67 240.97) rotate(-14.17)"/><ellipse class="cls-2" cx="884.28" cy="735.67" rx="11" ry="33.28" transform="translate(-254.54 897.69) rotate(-47.86)"/><ellipse class="cls-2" cx="219.55" cy="732.1" rx="35.83" ry="12.76" transform="translate(-286.07 158.93) rotate(-24.72)"/><rect class="cls-2" x="92.62" y="586.08" width="82.37" height="15.87" rx="7.94" transform="translate(74.18 -11.96) rotate(7.07)"/><rect class="cls-2" x="76.69" y="624.01" width="100.66" height="15.87" rx="7.94" transform="translate(-22.87 5.03) rotate(-2.08)"/><rect class="cls-2" x="97.27" y="669.25" width="90.18" height="15.87" rx="7.72" transform="translate(-177.45 63.53) rotate(-15.65)"/><rect class="cls-2" x="923.33" y="578.14" width="82.37" height="15.87" rx="7.94" transform="translate(-79.85 158.2) rotate(-9.01)"/><rect class="cls-2" x="915.33" y="621.37" width="100.66" height="15.87" rx="7.94" transform="translate(-22.22 35.49) rotate(-2.08)"/><rect class="cls-2" x="914.74" y="669.25" width="90.18" height="15.87" rx="7.72" transform="translate(308.18 -300.16) rotate(21.1)"/></svg>