<?xml version="1.0" standalone="no"?><!DOCTYPE svg PUBLIC "-//W3C//DTD SVG 1.1//EN" "http://www.w3.org/Graphics/SVG/1.1/DTD/svg11.dtd"><svg t="1770027790649" class="icon" viewBox="0 0 1024 1024" version="1.1" xmlns="http://www.w3.org/2000/svg" p-id="17675" xmlns:xlink="http://www.w3.org/1999/xlink" width="200" height="200"><path d="M512 32A464.256 464.256 0 0 0 32 477.504a430.272 430.272 0 0 0 138.496 312.448l-5.376 8.64a504.96 504.96 0 0 1-67.584 83.84A64 64 0 0 0 142.72 992h0.512a459.264 459.264 0 0 0 259.2-80.896l0.192-0.128a512.448 512.448 0 0 0 109.44 12.096 464.256 464.256 0 0 0 480-445.568A464.256 464.256 0 0 0 512 32z m0 827.072a452.16 452.16 0 0 1-109.44-13.824 32 32 0 0 0-27.008 5.44l-9.856 7.936a392.64 392.64 0 0 1-222.912 69.12A567.296 567.296 0 0 0 218.88 833.28c7.552-11.712 14.08-23.168 20.288-34.56a32 32 0 0 0-7.488-39.936A368.768 368.768 0 0 1 96 477.504 400.32 400.32 0 0 1 512 96a400.32 400.32 0 0 1 416 381.504A400.32 400.32 0 0 1 512 859.072z" p-id="17676" fill="#ffffff"></path><path d="M704 544H320a32 32 0 0 0 0 64h384a32 32 0 0 0 0-64zM704 352H320a32 32 0 0 0 0 64h384a32 32 0 0 0 0-64z" p-id="17677" fill="#ffffff"></path></svg>