<?xml version="1.0" standalone="no"?><!DOCTYPE svg PUBLIC "-//W3C//DTD SVG 1.1//EN" "http://www.w3.org/Graphics/SVG/1.1/DTD/svg11.dtd"><svg t="1764654073123" class="icon" viewBox="0 0 1024 1024" version="1.1" xmlns="http://www.w3.org/2000/svg" p-id="6512" xmlns:xlink="http://www.w3.org/1999/xlink" width="200" height="200"><path d="M514.71 886.53c-206.52 0-374.53-168.01-374.53-374.53S308.2 137.47 514.71 137.47 889.24 305.48 889.24 512 721.23 886.53 514.71 886.53z m0-662.21c-158.63 0-287.68 129.05-287.68 287.68s129.05 287.68 287.68 287.68S802.39 670.63 802.39 512 673.34 224.32 514.71 224.32z" fill="#41d1b8" p-id="6513"></path><path d="M512 410.38c-23.98 0-43.42-19.44-43.42-43.42v-258.4c0-23.98 19.44-43.42 43.42-43.42s43.42 19.44 43.42 43.42v258.4c0 23.97-19.44 43.42-43.42 43.42zM512 958.87c-23.98 0-43.42-19.44-43.42-43.42v-258.4c0-23.98 19.44-43.42 43.42-43.42s43.42 19.44 43.42 43.42v258.4c0 23.98-19.44 43.42-43.42 43.42zM915.45 555.42h-258.4c-23.98 0-43.42-19.44-43.42-43.42s19.44-43.42 43.42-43.42h258.4c23.98 0 43.42 19.44 43.42 43.42s-19.44 43.42-43.42 43.42zM366.96 555.42h-258.4c-23.98 0-43.42-19.44-43.42-43.42s19.44-43.42 43.42-43.42h258.4c23.98 0 43.42 19.44 43.42 43.42s-19.44 43.42-43.42 43.42z" fill="#41d1b8" p-id="6514"></path></svg>